<?xml version="1.0" standalone="no"?>
<!DOCTYPE svg PUBLIC "-//W3C//DTD SVG 20010904//EN"
 "http://www.w3.org/TR/2001/REC-SVG-20010904/DTD/svg10.dtd">
<svg version="1.0" xmlns="http://www.w3.org/2000/svg"
 width="289.000000pt" height="289.000000pt" viewBox="0 0 289.000000 289.000000"
 preserveAspectRatio="xMidYMid meet">
<metadata>
Created by potrace 1.11, written by Peter Selinger 2001-2013
</metadata>
<g transform="translate(0.000000,289.000000) scale(0.100000,-0.100000)"
fill="#000000" stroke="none">
<path d="M1275 2843 c-304 -43 -566 -174 -810 -405 -133 -125 -242 -280 -313
-443 -34 -79 -77 -220 -87 -286 -4 -24 -8 -46 -10 -49 -4 -6 -14 -125 -19
-212 -1 -26 1 -53 5 -60 10 -16 270 -19 275 -3 1 5 5 51 8 100 16 278 127 533
317 725 73 75 90 90 159 141 139 101 344 182 519 203 62 8 233 8 274 1 15 -3
53 -9 85 -15 259 -46 518 -209 688 -436 51 -66 134 -216 134 -240 0 -8 -96
-11 -327 -12 -181 0 -335 -1 -344 -1 -12 -1 -26 -34 -52 -123 -59 -204 -195
-692 -199 -712 -3 -19 4 -20 125 -21 70 0 132 2 138 5 5 4 23 53 40 111 16 57
34 108 39 113 6 6 73 10 158 9 81 0 154 3 163 8 13 7 53 125 63 184 0 5 -62
10 -154 11 -85 1 -160 2 -167 3 -7 1 -4 27 12 86 13 46 26 89 30 95 5 7 136
10 416 9 226 0 413 2 416 5 11 10 -16 136 -52 243 -72 217 -178 387 -345 553
-206 206 -403 312 -715 386 -90 21 -140 26 -275 28 -91 2 -178 1 -195 -1z"/>
<path d="M708 1773 c-14 -54 -52 -195 -83 -313 -31 -118 -62 -221 -67 -227 -8
-10 -73 -13 -264 -13 l-254 0 5 -32 c88 -528 513 -985 1042 -1122 32 -9 74
-18 93 -21 19 -3 51 -8 70 -11 71 -11 297 -11 375 1 133 21 147 23 230 48 559
169 969 679 1001 1246 l7 116 -142 0 c-134 0 -141 -1 -142 -20 -11 -355 -177
-677 -462 -892 -115 -87 -314 -179 -427 -198 -33 -5 -51 -8 -110 -20 -37 -8
-218 -8 -275 0 -198 27 -399 110 -555 230 -144 111 -275 276 -329 413 l-21 53
156 -2 c86 0 160 3 165 8 7 7 71 224 84 284 6 31 87 314 90 317 1 2 2 -133 2
-300 l-1 -303 98 0 98 0 22 40 c12 22 43 78 68 125 248 461 260 481 234 400
-23 -71 -156 -548 -156 -559 0 -7 38 -11 104 -11 91 0 105 2 110 18 47 153
236 826 233 829 -4 3 -214 6 -319 4 -28 -1 -30 -5 -171 -271 -28 -52 -68 -126
-89 -165 l-38 -70 0 258 0 257 -178 0 -178 0 -26 -97z"/>
</g>
</svg>
