<?xml version="1.0" standalone="no"?>
<!DOCTYPE svg PUBLIC "-//W3C//DTD SVG 20010904//EN"
 "http://www.w3.org/TR/2001/REC-SVG-20010904/DTD/svg10.dtd">
<svg version="1.0" xmlns="http://www.w3.org/2000/svg"
 width="289.000000pt" height="289.000000pt" viewBox="0 0 289.000000 289.000000"
 preserveAspectRatio="xMidYMid meet">
<metadata>
Created by potrace 1.11, written by Peter Selinger 2001-2013
</metadata>
<g transform="translate(0.000000,289.000000) scale(0.100000,-0.100000)"
fill="#000000" stroke="none">
<path d="M1235 2836 c-302 -50 -562 -189 -800 -430 -246 -248 -375 -545 -392
-903 l-6 -123 142 0 141 0 0 69 c0 140 51 345 121 483 151 299 412 508 749
599 75 21 108 23 270 23 169 0 194 -2 285 -27 119 -32 295 -117 385 -186 90
-68 221 -206 276 -291 47 -73 94 -166 94 -187 0 -10 -76 -13 -345 -13 l-345 0
-5 -22 c-3 -13 -57 -203 -119 -423 l-112 -400 134 -3 c74 -1 137 0 140 2 2 3
18 52 33 108 16 57 36 108 44 114 11 8 61 10 163 6 119 -4 150 -2 159 9 12 14
53 152 53 176 0 10 -37 13 -158 13 -87 0 -161 3 -164 6 -6 5 35 164 47 184 4
6 149 10 421 10 388 0 414 1 414 18 -1 35 -39 189 -65 262 -71 196 -184 371
-339 525 -206 205 -426 320 -732 385 -128 27 -375 35 -489 16z"/>
<path d="M651 1558 c-46 -172 -88 -319 -93 -325 -8 -10 -73 -13 -264 -13 -140
0 -254 -3 -254 -7 0 -5 11 -53 24 -109 131 -540 578 -961 1126 -1060 129 -24
372 -24 500 0 463 87 827 363 1030 781 83 171 125 328 137 510 l6 105 -141 0
-142 0 0 -37 c0 -68 -30 -226 -60 -315 -98 -293 -303 -526 -585 -664 -161 -79
-266 -105 -450 -111 -116 -4 -170 -2 -238 11 -171 33 -343 107 -478 207 -88
65 -219 203 -275 289 -38 60 -94 169 -94 185 0 3 72 5 159 5 88 0 162 4 166 9
3 5 41 141 85 302 44 161 82 294 85 297 3 3 5 -133 5 -302 l0 -307 96 3 96 3
166 307 c92 169 167 306 168 305 1 -1 -35 -135 -82 -297 -46 -162 -84 -301
-84 -307 0 -10 27 -13 104 -13 91 0 105 2 110 18 31 106 236 821 236 826 0 3
-78 6 -174 6 l-174 0 -133 -249 -134 -249 -3 254 -2 254 -178 0 -178 0 -83
-312z"/>
</g>
</svg>
